# AST/ASF file generated using VICON BodyLanguage
# -----------------------------------------------
:version 1.10
:name VICON
:units
  mass 1.0
  length 0.45
  angle deg
:documentation
   .ast/.asf automatically generated from VICON data using
   VICON BodyBuilder and BodyLanguage model FoxedUp or BRILLIANT.MOD
:root
   order TX TY TZ RX RY RZ
   axis XYZ
   position 0 0 0  
   orientation 0 0 0 
:bonedata
  begin
     id 1 
     name lhipjoint
     direction 0.440178 -0.822639 0.359871 
     length 2.53113 
     axis 0 0 0  XYZ
  end
  begin
     id 2 
     name lfemur
     direction 0.34202 -0.939693 0  
     length 7.88132  
     axis 0 0 20  XYZ
    dof rx ry rz
    limits (-160.0 20.0)
           (-70.0 70.0)
           (-60.0 70.0)
  end
  begin
     id 3 
     name ltibia
     direction 0.34202 -0.939693 0   
     length 8.43783   
     axis 0 0 20   XYZ
    dof rx
    limits (-10.0 170.0)
  end
  begin
     id 4 
     name lfoot
     direction 0.0886351 -0.243523 0.965837   
     length 2.63414   
     axis -90 7.62852e-016 20   XYZ
    dof rx rz
    limits (-45.0 90.0)
           (-70.0 20.0)
  end
  begin
     id 5 
     name ltoes
     direction 1.53703e-011 -4.21717e-011 1   
     length 1.31427   
     axis -90 7.62852e-016 20   XYZ
    dof rx
    limits (-90.0 20.0)
  end
  begin
     id 6 
     name rhipjoint
     direction -0.399779 -0.839773 0.367367   
     length 2.47948  
     axis 0 0 0  XYZ 
  end
  begin
     id 7 
     name rfemur
     direction -0.34202 -0.939693 0   
     length 7.74806   
     axis 0 0 -20   XYZ
    dof rx ry rz
    limits (-160.0 20.0)
           (-70.0 70.0)
           (-70.0 60.0)
  end
  begin
     id 8 
     name rtibia
     direction -0.34202 -0.939693 0   
     length 8.74432   
     axis 0 0 -20   XYZ
    dof rx
    limits (-10.0 170.0)
 end
 begin
     id 9 
     name rfoot
     direction -0.108514 -0.298139 0.948334   
     length 2.66102  
     axis -90 -7.62852e-016 -20   XYZ
    dof rx rz
    limits (-45.0 90.0)
           (-20.0 70.0)
  end
  begin
     id 10 
     name rtoes
     direction -1.53392e-011 -4.22077e-011 1   
     length 1.31983   
     axis -90 -7.62852e-016 -20   XYZ
    dof rx
    limits (-90.0 20.0)
  end
  begin
     id 11 
     name lowerback
     direction 0.0113257 0.999866 0.0118602   
     length 2.58694   
     axis 0 0 0   XYZ
    dof rx ry rz
    limits (-20.0 45.0)
           (-30.0 30.0)
           (-30.0 30.0)
  end
  begin
     id 12 
     name upperback
     direction -0.0164747 0.995193 -0.0965375   
     length 2.52368   
     axis 0 0 0   XYZ
    dof rx ry rz
    limits (-20.0 45.0)
           (-30.0 30.0)
           (-30.0 30.0)
  end
  begin
     id 13 
     name thorax
     direction -0.0194301 0.99433 -0.104552   
     length 2.56099   
     axis 0 0 0   XYZ
    dof rx ry rz
    limits (-20.0 45.0)
           (-30.0 30.0)
           (-30.0 30.0)
  end
  begin
     id 14 
     name lowerneck
     direction 0.0148543 0.995587 -0.092657   
     length 1.71582   
     axis 0 0 0   XYZ
    dof rx ry rz
    limits (-20.0 45.0)
           (-30.0 30.0)
           (-30.0 30.0)
  end
  begin
     id 15 
     name upperneck
     direction -0.0135467 0.993656 -0.111639   
     length 1.68937   
     axis 0 0 0   XYZ
    dof rx ry rz
    limits (-20.0 45.0)
           (-30.0 30.0)
           (-30.0 30.0)
  end
  begin
     id 16
     name head
     direction -0.00615349 0.999547 -0.029448  
     length 1.7462  
     axis 0 0 0   XYZ
    dof rx ry rz
    limits (-20.0 45.0)
           (-30.0 30.0)
           (-30.0 30.0)
  end
  begin
     id 17 
     name lclavicle
     direction 0.988267 0.149885 0.0293713  
     length 4.47222  
     axis 0 0 0   XYZ
    dof ry rz
    limits (-20.0 10.0)
           (0.0 20.0)
  end
  begin
     id 18 
     name lhumerus
     direction 1 -4.48986e-011 -1.14833e-027   
     length 5.37148   
     axis 180 -30 -90   XYZ
    dof rx ry rz
    limits (-60.0 90.0)
           (-90.0 90.0)
           (-90.0 90.0)
  end
  begin
     id 19
     name lradius
     direction 0.999998 0.00170963 -0.000987055   
     length 3.94212   
     axis 180 -30 -90   XYZ
    dof rx
    limits (-10.0 170.0)
  end
  begin
     id 20
     name lwrist
     direction 0.999998 7.53149e-005 -0.00194706   
     length 1.97106   
     axis 4.65056e-015 90 90   XYZ
    dof ry
    limits (-180.0 0.0)
 end
  begin
     id 21 
     name lhand
     direction 1 -4.48973e-011 -1.31746e-026   
     length 1.17917   
     axis 8.4065e-015 90 90   XYZ
    dof rx rz
    limits (-90.0 90.0)
           (-45.0 45.0)
  end
  begin
     id 22 
     name lfingers
     direction 1 -4.49107e-011 -2.63492e-026   
     length 0.950679   
     axis 1.6813e-014 90 90   XYZ
    dof rx
    limits (0.0 90.0)
  end
  begin
     id 23
     name lthumb
     direction 0.707107 -6.35048e-011 0.707107   
     length 1.36499   
     axis -90 45 2.85299e-015   XYZ
    dof rx rz
    limits (-45.0 45.0)
           (-45.0 45.0)
  end
  begin
     id 24 
     name rclavicle
     direction -0.996699 0.0642895 -0.0495725   
     length 4.62611  
     axis 0 0 0   XYZ 
    dof ry rz
    limits (-10.0 20.0)
           (-20.0 0.0)
  end
  begin
     id 25 
     name rhumerus
     direction -1 -4.48919e-011 -2.41059e-027  
     length 5.4981   
     axis 180 30 90   XYZ
    dof rx ry rz
    limits (-90.0 60.0)
           (-90.0 90.0)
           (-90.0 90.0)
  end
  begin
     id 26 
     name rradius
     direction -0.999999 0.00118101 -0.000681858   
     length 3.48381   
     axis 180 30 90   XYZ
    dof rx
    limits (-10.0 170.0)
  end
  begin
     id 27 
     name rwrist
     direction -0.999999 0.000321823 -0.00132288   
     length 1.7419   
     axis 4.65056e-015 -90 -90   XYZ
    dof ry
    limits (-180.0 0.0)
  end
  begin
     id 28
     name rhand
     direction -1 -4.49022e-011 -1.31746e-026   
     length 1.34932   
     axis 8.4065e-015 -90 -90   XYZ
    dof rx rz
    limits (-90.0 90.0)
           (-45.0 45.0)
  end
  begin
     id 29
     name rfingers
     direction -1 -4.49178e-011 -2.63492e-026   
     length 1.08785   
     axis 1.6813e-014 -90 -90   XYZ
    dof rx
    limits (0.0 90.0)
  end
  begin
     id 30
     name rthumb
     direction -0.707107 -6.34713e-011 0.707107   
     length 1.56195   
     axis -90 -45 -2.85299e-015   XYZ
    dof rx rz
    limits (-45.0 45.0)
           (-45.0 45.0)
  end
:hierarchy
  begin
    root lhipjoint rhipjoint lowerback
    lhipjoint lfemur
    lfemur ltibia
    ltibia lfoot
    lfoot ltoes
    rhipjoint rfemur
    rfemur rtibia
    rtibia rfoot
    rfoot rtoes
    lowerback upperback
    upperback thorax
    thorax lowerneck lclavicle rclavicle
    lowerneck upperneck
    upperneck head
    lclavicle lhumerus
    lhumerus lradius
    lradius lwrist
    lwrist lhand lthumb
    lhand lfingers
    rclavicle rhumerus
    rhumerus rradius
    rradius rwrist
    rwrist rhand rthumb
    rhand rfingers
  end

#!OML:ASF X:\für Bonn\!DataBase\2005_08_10_Bjorn_Final\c3d\bjorn.ASF
:FULLY-SPECIFIED
:DEGREES
15
root 5.13881 19.0742 16.083 8.82109 -1.11127 1.90905
lowerback -2.33338 0.388291 1.84687
upperback 5.78467 0.377602 0.455511
thorax 7.35329 0.276682 -0.524963
lowerneck -6.74318 -2.03332 0.155261
upperneck 5.93267 -2.68423 -0.680438
head 3.06924 -1.35396 -0.374243
rclavicle 7.15625e-015 1.11319e-014
rhumerus -56.929 -36.4352 -39.2326
rradius 121.694
rwrist -205.633
rhand -2.8625e-013 -5.10479e-013
rfingers 7.12502
rthumb 25.5904 -28.3008
lclavicle 7.15625e-015 1.11319e-014
lhumerus -54.0891 -4.63541 69.8694
lradius 111.888
lwrist 5.22113
lhand -3.49861e-014 -2.83069e-013
lfingers 7.12502
lthumb 25.5904 28.3008
rfemur -19.3026 -7.06035 13.7984
rtibia 51.6757
rfoot -0.481968 21.1337
rtoes 1.4642
lfemur -20.0778 9.0864 -16.9952
ltibia 51.0393
lfoot -3.36924 -11.0067
ltoes -23.9527
16
root 5.10995 19.3492 16.3324 8.70617 -0.624591 1.94405
lowerback -3.75879 0.27955 1.66727
upperback 5.27794 0.218475 0.461574
thorax 7.63462 0.187155 -0.427995
lowerneck -5.05304 -2.10876 0.0570651
upperneck 6.51651 -2.78674 -0.517364
head 2.95024 -1.39962 -0.29068
rclavicle 6.16232e-015 -1.59028e-015
rhumerus -58.2064 -36.2073 -35.4489
rradius 124.747
rwrist -207.601
rhand -1.03209e-012 -5.12069e-013
rfingers 7.12502
rthumb 25.5904 -28.3008
lclavicle 6.16232e-015 -1.59028e-015
lhumerus -54.4184 -6.24883 68.2582
lradius 115.274
lwrist 5.07502
lhand 3.10104e-013 -1.57437e-013
lfingers 7.12502
lthumb 25.5904 28.3008
rfemur -17.3375 -7.57102 13.6643
rtibia 48.9574
rfoot 3.8379 19.426
rtoes 1.48232
lfemur -18.4029 9.30256 -16.5523
ltibia 48.5935
lfoot 0.964332 -10.8697
ltoes -24.2148
17
root 5.08083 19.6245 16.5778 8.60775 -0.188444 1.97973
lowerback -5.12762 0.179897 1.46296
upperback 4.79281 0.0787433 0.470999
thorax 7.90845 0.106113 -0.316321
lowerneck -3.63044 -2.17966 -0.110685
upperneck 7.34033 -2.8847 -0.312058
head 2.96723 -1.44435 -0.187323
rclavicle -5.36719e-015 7.95139e-015
rhumerus -59.3507 -36.2221 -31.5733
rradius 127.644
rwrist -209.995
rhand -1.15454e-012 3.24417e-013
rfingers 7.12502
rthumb 25.5904 -28.3008
lclavicle -5.36719e-015 7.95139e-015
lhumerus -54.4196 -7.76872 66.574
lradius 118.413
lwrist 4.96391
lhand -6.8541e-013 -5.55007e-013
lfingers 7.12502
lthumb 25.5904 28.3008
rfemur -15.6036 -8.00443 13.5399
rtibia 46.5655
rfoot 7.97536 17.3454
rtoes 1.36382
lfemur -16.9447 9.52101 -16.1192
ltibia 46.4543
lfoot 5.32588 -10.3473
ltoes -24.5853
18
root 5.05317 19.9072 16.8215 8.55518 0.189192 1.98997
lowerback -6.4456 0.0948877 1.26463
upperback 4.31198 -0.0364339 0.485772
thorax 8.15866 0.0375844 -0.203162
lowerneck -2.38764 -2.24283 -0.244887
upperneck 8.31597 -2.9761 -0.151961
head 3.07041 -1.48738 -0.107522
rclavicle -4.17448e-015 1.59028e-015
rhumerus -60.3921 -36.3596 -27.6994
rradius 130.255
rwrist -212.766
rhand -1.12592e-012 4.13472e-013
rfingers 7.12502
rthumb 25.5904 -28.3008
lclavicle -4.17448e-015 1.59028e-015
lhumerus -54.1119 -9.21268 64.7967
lradius 121.271
lwrist 4.98028
lhand -4.92986e-014 -2.54444e-014
lfingers 7.12502
lthumb 25.5904 28.3008
rfemur -14.1828 -8.31377 13.4725
rtibia 44.5079
rfoot 11.6181 15.0759
rtoes 0.297292
lfemur -15.6518 9.74879 -15.6884
ltibia 44.5281
lfoot 9.58694 -9.52331
ltoes -24.9457
19
root 5.02644 20.1975 17.0619 8.53744 0.526896 2.00118
lowerback -7.6457 0.00238277 1.09197
upperback 3.81734 -0.155559 0.473042
thorax 8.32488 -0.0304922 -0.137128
lowerneck -1.09742 -2.28821 -0.367614
upperneck 9.14372 -3.05014 0.0261814
head 3.11629 -1.52191 -0.0207721
rclavicle 8.84592e-015 7.55382e-015
rhumerus -61.2417 -36.4804 -23.8838
rradius 132.464
rwrist -215.673
rhand 4.54819e-013 -1.59028e-014
rfingers 7.12502
rthumb 25.5904 -28.3008
lclavicle 8.84592e-015 7.55382e-015
lhumerus -53.6236 -10.5881 62.9757
lradius 123.91
lwrist 5.14212
lhand 1.57437e-013 -1.27222e-014
lfingers 7.12502
lthumb 25.5904 28.3008
rfemur -13.0886 -8.49861 13.436
rtibia 42.8266
rfoot 14.8232 12.7447
rtoes -0.810891
lfemur -14.5222 9.86449 -15.3018
ltibia 42.8022
lfoot 13.0854 -8.65984
ltoes -25.8265
20
root 5.00234 20.4863 17.2904 8.57025 0.705164 2.01507
lowerback -8.70644 -0.0312634 0.952725
upperback 3.34963 -0.191589 0.426649
thorax 8.43846 -0.0548831 -0.114955
lowerneck 0.246404 -2.33206 -0.41604
upperneck 9.65165 -3.12379 0.165283
head 3.04275 -1.55637 0.0444805
rclavicle -1.0138e-014 -5.1684e-015
rhumerus -61.9603 -36.6349 -20.0531
rradius 134.368
rwrist -218.625
rhand -1.79701e-012 1.374e-012
rfingers 7.12502
rthumb 25.5904 -28.3008
lclavicle -1.0138e-014 -5.1684e-015
lhumerus -52.8503 -11.859 61.0652
lradius 126.244
lwrist 5.49679
lhand 3.42506e-013 5.37514e-013
lfingers 7.12502
lthumb 25.5904 28.3008
rfemur -12.3075 -8.51297 13.4123
rtibia 41.5159
rfoot 17.5973 10.5413
rtoes -1.54068
lfemur -13.6134 9.92032 -15.011
ltibia 41.3047
lfoot 15.98 -7.83936
ltoes -25.4024
21
root 4.97751 20.7699 17.5102 8.61003 0.837857 2.06676
lowerback -9.65048 -0.0739459 0.758726
upperback 2.95292 -0.228983 0.382069
thorax 8.55944 -0.0824307 -0.0608147
lowerneck 1.58958 -2.3531 -0.488163
upperneck 9.81509 -3.16855 0.335387
head 2.85565 -1.57769 0.127152
rclavicle -7.95139e-016 -1.59028e-015
rhumerus -62.2516 -36.9697 -16.5909
rradius 136.094
rwrist -221.104
rhand -1.27222e-014 -3.84847e-013
rfingers 7.12502
rthumb 25.5904 -28.3008
lclavicle -7.95139e-016 -1.59028e-015
lhumerus -51.8821 -12.8923 59.1233
lradius 128.315
lwrist 5.8111
lhand -3.09309e-013 -1.93417e-013
lfingers 7.12502
lthumb 25.5904 28.3008
rfemur -11.6987 -8.44466 13.3808
rtibia 40.5472
rfoot 19.8241 8.52379
rtoes -2.58094
lfemur -12.8957 9.57859 -14.8444
ltibia 40.0699
lfoot 18.3504 -6.58918
ltoes -24.0617
22
root 4.9536 21.0439 17.7168 8.63427 1.05496 2.08648
lowerback -10.4297 -0.136235 0.618977
upperback 2.66495 -0.295579 0.335971
thorax 8.70075 -0.120703 -0.0443823
lowerneck 2.50894 -2.38192 -0.534025
upperneck 9.97144 -3.22379 0.508257
head 2.74614 -1.60332 0.200127
rclavicle -3.08116e-015 3.97569e-016
rhumerus -62.2729 -37.5867 -13.491
rradius 137.581
rwrist -223.04
rhand 8.65111e-013 -7.12444e-013
rfingers 7.12502
rthumb 25.5904 -28.3008
lclavicle -3.08116e-015 3.97569e-016
lhumerus -50.5334 -13.6591 57.063
lradius 130.092
lwrist 6.0712
lhand 8.82604e-014 5.12864e-014
lfingers 7.12502
lthumb 25.5904 28.3008
rfemur -11.2125 -8.42769 13.4218
rtibia 39.8719
rfoot 21.3966 6.63618
rtoes -4.19484
lfemur -12.3747 8.74777 -14.7178
ltibia 39.1504
lfoot 20.1842 -4.81124
ltoes -22.8517
23
root 4.92992 21.3092 17.9095 8.75664 1.36266 2.11118
lowerback -11.1453 -0.247465 0.449309
upperback 2.44357 -0.424312 0.330273
thorax 8.87676 -0.191505 0.0193451
lowerneck 2.93096 -2.40232 -0.597757
upperneck 10.2498 -3.26373 0.625997
head 2.76805 -1.62265 0.25144
rclavicle 4.37326e-015 -1.19271e-014
rhumerus -62.051 -38.4838 -10.6292
rradius 138.771
rwrist -224.632
rhand 5.31153e-013 2.01011e-012
rfingers 7.12502
rthumb 25.5904 -28.3008
lclavicle 4.37326e-015 -1.19271e-014
lhumerus -48.9499 -14.0327 55.0825
lradius 131.611
lwrist 6.0855
lhand 4.65951e-013 -7.09661e-013
lfingers 7.12502
lthumb 25.5904 28.3008
rfemur -10.9592 -8.49956 13.5178
rtibia 39.4273
rfoot 22.4011 4.79256
rtoes -5.72603
lfemur -12.1905 7.57837 -14.6654
ltibia 38.5492
lfoot 21.584 -2.86665
ltoes -21.1463
24
root 4.90692 21.5635 18.0948 8.89937 1.68142 2.13898
lowerback -11.7954 -0.349444 0.316021
upperback 2.32323 -0.54062 0.288305
thorax 9.12398 -0.252863 0.0243091
lowerneck 2.97128 -2.4365 -0.591856
upperneck 10.5192 -3.32165 0.745006
head 2.85503 -1.64738 0.286269
rclavicle -1.98785e-015 9.14409e-015
rhumerus -61.9474 -39.7302 -7.79691
rradius 139.757
rwrist -226.086
rhand 1.75567e-012 -1.145e-012
rfingers 7.12502
rthumb 25.5904 -28.3008
lclavicle -1.98785e-015 9.14409e-015
lhumerus -47.1188 -14.1114 53.0812
lradius 132.948
lwrist 5.9165
lhand -7.17215e-013 -6.91373e-013
lfingers 7.12502
lthumb 25.5904 28.3008
rfemur -10.8452 -8.67865 13.6182
rtibia 39.1737
rfoot 22.879 3.25165
rtoes -6.79316
lfemur -12.2145 6.39981 -14.6502
ltibia 38.2401
lfoot 22.7382 -1.15283
ltoes -18.8658
25
root 4.88505 21.8044 18.2707 9.01858 1.93144 2.16173
lowerback -12.3735 -0.437511 0.192477
upperback 2.32424 -0.639194 0.258977
thorax 9.46218 -0.305276 0.0389139
lowerneck 2.645 -2.46502 -0.604829
upperneck 10.8087 -3.36994 0.837191
head 3.01586 -1.66741 0.310987
rclavicle 2.6339e-015 -1.98785e-015
rhumerus -61.818 -41.1949 -5.21106
rradius 140.569
rwrist -227.43
rhand -7.06083e-013 -5.725e-014
rfingers 7.12502
rthumb 25.5904 -28.3008
lclavicle 2.6339e-015 -1.98785e-015
lhumerus -45.1396 -13.7816 51.1768
lradius 134.133
lwrist 5.43144
lhand 3.95979e-013 7.56177e-013
lfingers 7.12502
lthumb 25.5904 28.3008
rfemur -10.8409 -8.99797 13.699
rtibia 39.0921
rfoot 23.0582 2.226
rtoes -7.41909
lfemur -12.383 5.54807 -14.6542
ltibia 38.1846
lfoot 23.5413 0.000471438
ltoes -17.5943
26
root 4.8642 22.0319 18.4371 9.01897 2.15147 2.18577
lowerback -12.6885 -0.519056 0.0630355
upperback 2.35895 -0.72761 0.249067
thorax 9.68526 -0.354186 0.0803641
lowerneck 2.23169 -2.50573 -0.626702
upperneck 11.0996 -3.42873 0.859597
head 3.19338 -1.69455 0.313317
rclavicle 5.71506e-015 -3.18055e-015
rhumerus -61.557 -42.5354 -3.10466
rradius 141.246
rwrist -228.262
rhand 1.53621e-012 -6.07486e-013
rfingers 7.12502
rthumb 25.5904 -28.3008
lclavicle 5.71506e-015 -3.18055e-015
lhumerus -43.3844 -13.5484 49.7697
lradius 135.084
lwrist 5.17235
lhand -3.95979e-013 -8.11041e-013
lfingers 7.12502
lthumb 25.5904 28.3008
rfemur -10.8114 -9.40152 13.7471
rtibia 39.1364
rfoot 23.0405 1.79637
rtoes -9.21376
lfemur -12.5786 5.03138 -14.6758
ltibia 38.35
lfoot 24.1315 0.387811
ltoes -14.8376
27
root 4.84515 22.2444 18.5911 8.93986 2.25989 2.21178
lowerback -12.7443 -0.566639 -0.0398649
upperback 2.36712 -0.771756 0.219101
thorax 9.72789 -0.380154 0.0965254
lowerneck 1.91562 -2.54222 -0.590059
upperneck 11.349 -3.47791 0.833497
head 3.3375 -1.71653 0.291475
rclavicle 2.98177e-015 -1.19271e-015
rhumerus -61.0847 -43.4679 -1.74377
rradius 141.758
rwrist -228.517
rhand -1.72386e-012 4.26194e-013
rfingers 7.12502
rthumb 25.5904 -28.3008
lclavicle 2.98177e-015 -1.19271e-015
lhumerus -41.9341 -13.6473 48.8845
lradius 135.729
lwrist 5.21115
lhand 1.48532e-012 1.90197e-012
lfingers 7.12502
lthumb 25.5904 28.3008
rfemur -10.8206 -9.73841 13.7675
rtibia 39.2645
rfoot 22.9061 1.71736
rtoes -11.1612
lfemur -12.8172 4.70346 -14.7655
ltibia 38.7084
lfoot 24.5103 0.176885
ltoes -11.5651
28
root 4.82942 22.4414 18.7316 8.81392 2.22019 2.23957
lowerback -12.6121 -0.560395 -0.108812
upperback 2.3822 -0.748671 0.181414
thorax 9.66769 -0.371891 0.101041
lowerneck 1.62618 -2.59422 -0.526135
upperneck 11.5515 -3.54098 0.73298
head 3.45906 -1.74705 0.240752
rclavicle 1.35671e-014 -1.98785e-015
rhumerus -60.3181 -44.1422 -1.11139
rradius 142.159
rwrist -228.655
rhand 8.90555e-013 -2.54444e-013
rfingers 7.12502
rthumb 25.5904 -28.3008
lclavicle 1.35671e-014 -1.98785e-015
lhumerus -40.4411 -13.7052 48.1932
lradius 136.173
lwrist 4.99531
lhand -1.24042e-013 -7.4266e-013
lfingers 7.12502
lthumb 25.5904 28.3008
rfemur -10.9061 -10.001 13.757
rtibia 39.4194
rfoot 22.8335 1.77745
rtoes -12.2613
lfemur -13.1102 4.59536 -14.9102
ltibia 39.1906
lfoot 24.9026 -0.257165
ltoes -7.75337
